<?xml version="1.0" standalone="no"?>
<!DOCTYPE svg PUBLIC "-//W3C//DTD SVG 20010904//EN"
 "http://www.w3.org/TR/2001/REC-SVG-20010904/DTD/svg10.dtd">
<svg version="1.0" xmlns="http://www.w3.org/2000/svg"
 width="192.000000pt" height="192.000000pt" viewBox="0 0 192.000000 192.000000"
 preserveAspectRatio="xMidYMid meet">
<metadata>
Created by potrace 1.16, written by Peter Selinger 2001-2019
</metadata>
<g transform="translate(0.000000,192.000000) scale(0.100000,-0.100000)"
fill="#000000" stroke="none">
<path d="M90 1903 c-30 -21 -52 -43 -73 -73 -16 -23 -17 -92 -17 -870 0 -916
-3 -857 50 -910 53 -53 -6 -50 910 -50 916 0 857 -3 910 50 53 53 50 -6 50
910 0 916 3 857 -50 910 -53 53 6 50 -910 50 -778 0 -847 -1 -870 -17z m978
-348 c81 -19 148 -54 195 -102 46 -45 65 -80 83 -148 46 -169 -25 -347 -166
-420 -17 -9 -30 -17 -30 -20 0 -2 59 -109 130 -238 72 -128 130 -243 130 -255
0 -21 -4 -22 -104 -22 l-104 0 -70 133 c-39 72 -95 177 -125 232 l-55 100
-116 3 -116 3 0 -236 0 -235 -105 0 -105 0 0 610 0 610 248 0 c182 0 263 -4
310 -15z"/>
<path d="M720 1194 l0 -196 148 4 c135 3 151 5 192 28 60 34 90 87 90 162 0
94 -29 144 -105 179 -33 15 -65 19 -182 19 l-143 0 0 -196z"/>
</g>
</svg>
